<?xml version="1.0" encoding="UTF-8" standalone="no"?><svg xmlns="http://www.w3.org/2000/svg" xmlns:xlink="http://www.w3.org/1999/xlink" fill="#000000" height="481.9" preserveAspectRatio="xMidYMid meet" version="1" viewBox="0.0 0.0 482.0 481.9" width="482" zoomAndPan="magnify"><g id="change1_1"><path d="M482,241c0-12.7-4.7-25.5-14.2-35.3c-9.2-9.6-14.2-22.3-14.2-35.3c0-4.1,0.5-8.1,1.4-12.2 c1-4.1,1.5-8.2,1.5-12.2c0-22.2-14.6-42.5-36.8-49c-8.4-2.4-15.9-6.9-21.9-12.9c-6-6-10.5-13.4-12.9-21.8 c-6.5-22.2-26.8-36.8-49-36.8c-4,0-8.1,0.5-12.2,1.5c-17,4.2-34.9-0.6-47.5-12.7C266.5,4.7,253.8,0,241,0 c-12.7,0-25.5,4.7-35.3,14.2c-9.6,9.2-22.3,14.2-35.3,14.2c-4,0-8.1-0.5-12.1-1.4c-4.1-1-8.2-1.5-12.2-1.5 c-22.2,0-42.5,14.6-49,36.8c-2.4,8.4-6.9,15.9-12.9,21.8c-6,6-13.4,10.5-21.9,12.9c-22.2,6.5-36.8,26.8-36.8,49 c0,4,0.5,8.1,1.5,12.2c1,4,1.4,8.1,1.4,12.2c0,13-4.9,25.7-14.2,35.3C4.7,215.5,0,228.3,0,241c0,12.7,4.7,25.5,14.2,35.3 c12.1,12.6,16.9,30.5,12.7,47.5v0c-1,4.1-1.5,8.2-1.5,12.2c0,22.2,14.6,42.5,36.8,48.9c8.4,2.4,15.9,6.9,21.9,12.9 c6,6,10.5,13.5,12.9,21.9c6.5,22.2,26.8,36.8,49,36.8c4,0,8.1-0.5,12.2-1.5c4-1,8.1-1.5,12.2-1.5c13,0,25.7,5,35.3,14.2 c9.9,9.5,22.6,14.2,35.3,14.2c12.7,0,25.5-4.7,35.3-14.2c9.6-9.2,22.3-14.2,35.3-14.2c4,0,8.1,0.5,12.2,1.5c4.1,1,8.1,1.5,12.2,1.5 c22.2,0,42.5-14.6,49-36.8c2.4-8.4,6.9-15.9,12.9-21.9c6-6,13.4-10.5,21.9-12.9c26.2-7.6,41.8-34.6,35.3-61.1v0 c-1-4-1.4-8.1-1.4-12.1c0-13,4.9-25.7,14.2-35.3C477.3,266.4,482,253.7,482,241z" fill="#b3247e"/></g><g id="change2_1"><path d="M181.3,318.7c-1.8,0-3.5-0.2-5.2-0.8c-5.3-1.6-9.7-5.4-11.9-10.5l-34.6-80c-4.1-9.4,0.3-20.4,9.7-24.5 c9.4-4.1,20.4,0.3,24.5,9.7l25.7,59.5l145-97.7c8.5-5.7,20.1-3.5,25.9,5c5.7,8.5,3.5,20.1-5,25.9L191.7,315.5 C188.6,317.6,185,318.7,181.3,318.7z M273.1,437.5c10.1-9.6,24.2-13.7,38.4-10.3c3.7,0.9,7.4,1.3,11,1.3c20.5,0,38.8-13.7,44.5-33.4 c1.9-6.7,5.5-12.8,10.5-17.7c4.9-4.9,11-8.5,17.7-10.5c23.8-6.9,37.9-31.1,32.1-55.2l-0.1-0.3c-0.8-3.2-1.2-6.5-1.2-9.8 c0-10.7,4.1-20.9,11.5-28.6c8.3-8.7,12.9-20.1,12.9-32.1c0-12-4.6-23.4-12.9-32c-7.4-7.7-11.5-17.9-11.5-28.6c0-3.3,0.4-6.7,1.2-9.9 c0.9-3.6,1.4-7.3,1.4-11.1c0-20.4-13.7-38.7-33.4-44.4c-6.6-1.9-12.8-5.5-17.7-10.5c-4.9-4.9-8.5-11-10.5-17.7 c-5.7-19.7-24-33.4-44.4-33.4c-3.8,0-7.5,0.5-11.1,1.3c-3.2,0.8-6.5,1.2-9.8,1.2c-10.7,0-20.9-4.1-28.6-11.5 c-8.6-8.3-20-12.9-32.1-12.9c-12,0-23.4,4.6-32.1,12.9c-7.7,7.4-17.9,11.5-28.6,11.5c-3.3,0-6.6-0.4-9.8-1.2 c-3.6-0.9-7.3-1.4-11.1-1.4c-20.4,0-38.7,13.7-44.4,33.4c-1.9,6.7-5.5,12.8-10.5,17.7c-4.9,4.9-11,8.5-17.7,10.5 c-19.7,5.7-33.4,24-33.4,44.4c0,3.8,0.5,7.5,1.3,11.1c0.8,3.2,1.2,6.5,1.2,9.9c0,10.7-4.1,20.9-11.5,28.6c-8.3,8.6-12.9,20-12.9,32 c0,12,4.6,23.4,12.9,32.1c9.8,10.2,13.7,24.6,10.3,38.4l-0.1,0.3c-0.9,3.5-1.3,7.1-1.3,10.8c0,20.5,13.7,38.7,33.4,44.4 c6.6,1.9,12.8,5.5,17.7,10.5c4.9,4.9,8.5,11,10.5,17.7c5.7,19.7,24,33.4,44.5,33.4c3.6,0,7.3-0.5,11-1.3 c14.2-3.4,28.4,0.6,38.4,10.3c8.7,8.3,20.1,12.9,32.1,12.9C253,450.4,264.4,445.8,273.1,437.5z M169.4,422.4 c-3.3,0.8-6.7,1.2-9.9,1.2c-18.3,0-34.6-12.3-39.7-29.8c-2.2-7.5-6.2-14.3-11.7-19.8c-5.5-5.5-12.4-9.6-19.8-11.7 c-17.5-5.1-29.8-21.4-29.8-39.6c0-3.4,0.4-6.7,1.2-9.9l0.1-0.3v0c3.7-15.4-0.7-31.4-11.6-42.8c-7.4-7.7-11.5-17.9-11.5-28.6 c0-10.7,4.1-20.9,11.5-28.6c8.3-8.6,12.9-20,12.9-32.1c0-3.7-0.4-7.5-1.3-11.1c-0.8-3.2-1.2-6.5-1.2-9.9c0-18.2,12.2-34.5,29.8-39.6 c7.5-2.1,14.3-6.2,19.8-11.7c5.5-5.5,9.6-12.3,11.7-19.8c5.1-17.5,21.4-29.8,39.6-29.8c3.4,0,6.7,0.4,9.9,1.2 c3.6,0.9,7.3,1.3,11,1.3c12,0,23.4-4.6,32.1-12.9c7.7-7.4,17.9-11.5,28.6-11.5c10.7,0,20.9,4.1,28.6,11.5c8.6,8.3,20,12.9,32,12.9 c3.7,0,7.4-0.4,11.1-1.3c3.2-0.8,6.5-1.2,9.9-1.2c18.2,0,34.5,12.3,39.6,29.8c2.2,7.5,6.2,14.3,11.7,19.8 c5.5,5.5,12.4,9.6,19.8,11.7c17.5,5.1,29.8,21.4,29.8,39.6c0,3.4-0.4,6.7-1.2,9.9c-0.9,3.6-1.3,7.3-1.3,11c0,12,4.6,23.4,12.9,32.1 c7.4,7.7,11.5,17.8,11.5,28.6c0,10.7-4.1,20.9-11.5,28.6c-8.3,8.6-12.9,20-12.9,32.1c0,3.6,0.4,7.2,1.2,10.7l0.1,0.3 c5.3,21.6-7.2,43.3-28.6,49.5c-7.5,2.1-14.3,6.2-19.8,11.7c-5.5,5.5-9.6,12.4-11.7,19.8c-5.1,17.5-21.4,29.8-39.7,29.8 c-3.2,0-6.5-0.4-9.9-1.2c-3.7-0.9-7.4-1.3-11-1.3c-12,0-23.4,4.6-32,12.9c-7.7,7.4-17.9,11.5-28.6,11.5s-20.9-4.1-28.6-11.5 c-8.7-8.3-20-12.9-32-12.9C176.8,421,173,421.5,169.4,422.4z" fill="#ffffff"/></g></svg>