<?xml version="1.0" encoding="UTF-8"?><svg xmlns="http://www.w3.org/2000/svg" xmlns:xlink="http://www.w3.org/1999/xlink" height="647.0" preserveAspectRatio="xMidYMid meet" version="1.0" viewBox="0.0 0.0 1085.7 647.0" width="1085.7" zoomAndPan="magnify"><g><g><path d="M0 0H1085.5V560.4H0z" fill="#cc1a1a"/></g><g><path d="M0 561.3H306.8V574.3H0z" fill="#fefdfb"/></g><g><path d="M320.2 561.4H570.3V573.3H320.2z" fill="#bfbfbf"/></g><g><path d="M569.7 561.2H1085.5V573.5H569.7z" fill="#9b9b9b"/></g><g><path d="M0.6 573.5H1085.6999999999998V647H0.6z" fill="#211600"/></g><g><circle cx="311.9" cy="566.9" fill="#fff" r="9.9"/></g><g><circle cx="311.9" cy="566.9" fill="#c2c2c2" r="3.4"/></g></g><g><g><path d="M989.6,623.2h-40v-26.7h40V623.2z M952.6,620.1h33.9v-20.6h-33.9V620.1z" fill="#c2c3c5"/></g><g><path d="M1054.9,626.3h-34.7v-33.9h34.7V626.3z M1023.4,623.1h28.3v-27.5h-28.3V623.1z" fill="#c2c3c5"/></g><g><path d="M1018.4 603.2H1056.8V614.1H1018.4z"/></g><g><path d="M1018 604.2H1056.4V615.1H1018z" transform="rotate(-90 1037.219 609.654)"/></g><g fill="#bfbfbf"><path d="M780,615.2v1.7h-9.6c0-0.4,0.1-0.8,0.2-1.2c0.2-0.7,0.6-1.3,1.2-1.9c0.5-0.6,1.3-1.4,2.3-2.2 c1.6-1.3,2.6-2.3,3.2-3.1c0.6-0.8,0.8-1.5,0.8-2.1c0-0.7-0.3-1.3-0.8-1.8c-0.5-0.5-1.2-0.7-2-0.7c-0.9,0-1.5,0.3-2.1,0.8 s-0.8,1.2-0.8,2.1l-1.8-0.2c0.1-1.4,0.6-2.4,1.4-3.1c0.8-0.7,1.9-1.1,3.3-1.1c1.4,0,2.5,0.4,3.3,1.2c0.8,0.8,1.2,1.7,1.2,2.9 c0,0.6-0.1,1.1-0.4,1.7c-0.2,0.6-0.6,1.1-1.2,1.8c-0.5,0.6-1.5,1.5-2.7,2.5c-1.1,0.9-1.7,1.5-2.1,1.8c-0.3,0.3-0.6,0.6-0.7,1H780z"/><path d="M782.9,608.5v-2h2v2H782.9z M782.9,616.9v-2h2v2H782.9z"/><path d="M787.5,609.8c0-1.7,0.2-3.1,0.5-4.1c0.4-1,0.9-1.8,1.6-2.4c0.7-0.6,1.6-0.8,2.6-0.8c0.8,0,1.5,0.2,2,0.5 c0.6,0.3,1.1,0.8,1.4,1.4c0.4,0.6,0.7,1.3,0.9,2.1c0.2,0.8,0.3,2,0.3,3.4c0,1.7-0.2,3.1-0.5,4.1c-0.3,1-0.9,1.8-1.6,2.4 c-0.7,0.6-1.6,0.9-2.6,0.9c-1.4,0-2.5-0.5-3.3-1.5C788,614.5,787.5,612.5,787.5,609.8z M789.3,609.8c0,2.4,0.3,4,0.8,4.7 c0.6,0.8,1.2,1.2,2.1,1.2c0.8,0,1.5-0.4,2.1-1.2c0.6-0.8,0.8-2.4,0.8-4.7c0-2.4-0.3-4-0.8-4.7c-0.6-0.8-1.2-1.2-2.1-1.2 c-0.8,0-1.5,0.3-2,1C789.6,605.8,789.3,607.4,789.3,609.8z"/><path d="M798.7,609.8c0-1.7,0.2-3.1,0.5-4.1c0.4-1,0.9-1.8,1.6-2.4c0.7-0.6,1.6-0.8,2.6-0.8c0.8,0,1.5,0.2,2,0.5 c0.6,0.3,1.1,0.8,1.4,1.4c0.4,0.6,0.7,1.3,0.9,2.1c0.2,0.8,0.3,2,0.3,3.4c0,1.7-0.2,3.1-0.5,4.1c-0.3,1-0.9,1.8-1.6,2.4 c-0.7,0.6-1.6,0.9-2.6,0.9c-1.4,0-2.5-0.5-3.3-1.5C799.2,614.5,798.7,612.5,798.7,609.8z M800.5,609.8c0,2.4,0.3,4,0.8,4.7 c0.6,0.8,1.2,1.2,2.1,1.2c0.8,0,1.5-0.4,2.1-1.2c0.6-0.8,0.8-2.4,0.8-4.7c0-2.4-0.3-4-0.8-4.7c-0.6-0.8-1.2-1.2-2.1-1.2 c-0.8,0-1.5,0.3-2,1C800.8,605.8,800.5,607.4,800.5,609.8z"/><path d="M809.1,617.2l4.2-14.9h1.4l-4.2,14.9H809.1z"/><path d="M824.8,606l-1.8,0.1c-0.2-0.7-0.4-1.2-0.7-1.5c-0.5-0.5-1.1-0.8-1.8-0.8c-0.6,0-1.1,0.2-1.5,0.5 c-0.6,0.4-1,1-1.3,1.8c-0.3,0.8-0.5,1.9-0.5,3.3c0.4-0.7,0.9-1.1,1.6-1.4c0.6-0.3,1.3-0.5,1.9-0.5c1.2,0,2.2,0.4,3,1.3 c0.8,0.9,1.2,2,1.2,3.4c0,0.9-0.2,1.7-0.6,2.5c-0.4,0.8-0.9,1.4-1.6,1.8c-0.7,0.4-1.5,0.6-2.3,0.6c-1.5,0-2.7-0.5-3.6-1.6 c-0.9-1.1-1.4-2.9-1.4-5.4c0-2.8,0.5-4.8,1.5-6.1c0.9-1.1,2.1-1.7,3.6-1.7c1.1,0,2.1,0.3,2.8,1C824.2,604,824.6,604.9,824.8,606z M817.5,612.3c0,0.6,0.1,1.2,0.4,1.8c0.3,0.6,0.6,1,1.1,1.3c0.5,0.3,1,0.4,1.5,0.4c0.7,0,1.4-0.3,1.9-0.9c0.5-0.6,0.8-1.4,0.8-2.5 c0-1-0.3-1.8-0.8-2.4c-0.5-0.6-1.2-0.9-2-0.9c-0.8,0-1.5,0.3-2,0.9C817.8,610.6,817.5,611.3,817.5,612.3z"/><path d="M827.8,608.5v-2h2v2H827.8z M827.8,616.9v-2h2v2H827.8z"/><path d="M832.4,613.2l1.9-0.2c0.1,0.9,0.5,1.6,1,2c0.5,0.5,1.1,0.7,1.8,0.7c0.9,0,1.6-0.3,2.2-1 c0.6-0.6,0.9-1.5,0.9-2.6c0-1-0.3-1.8-0.9-2.4c-0.6-0.6-1.3-0.9-2.2-0.9c-0.6,0-1.1,0.1-1.5,0.4c-0.5,0.3-0.8,0.6-1.1,1l-1.7-0.2 l1.4-7.4h7.2v1.7h-5.8l-0.8,3.9c0.9-0.6,1.8-0.9,2.7-0.9c1.3,0,2.3,0.4,3.2,1.3c0.9,0.9,1.3,2,1.3,3.4c0,1.3-0.4,2.4-1.1,3.4 c-0.9,1.2-2.2,1.8-3.8,1.8c-1.3,0-2.4-0.4-3.2-1.1C833,615.3,832.5,614.4,832.4,613.2z"/><path d="M846.3,609.1c-0.7-0.3-1.3-0.7-1.6-1.2c-0.4-0.5-0.5-1.1-0.5-1.8c0-1.1,0.4-1.9,1.1-2.7 c0.8-0.7,1.8-1.1,3-1.1c1.3,0,2.3,0.4,3,1.1c0.8,0.7,1.2,1.6,1.2,2.7c0,0.7-0.2,1.3-0.5,1.7c-0.4,0.5-0.9,0.9-1.6,1.1 c0.9,0.3,1.6,0.8,2,1.4c0.5,0.6,0.7,1.4,0.7,2.3c0,1.2-0.4,2.3-1.3,3.1c-0.9,0.8-2,1.3-3.4,1.3c-1.4,0-2.6-0.4-3.5-1.3 c-0.9-0.8-1.3-1.9-1.3-3.2c0-0.9,0.2-1.7,0.7-2.4C844.8,609.8,845.5,609.3,846.3,609.1z M845.4,612.8c0,0.5,0.1,1,0.4,1.5 c0.2,0.5,0.6,0.8,1.1,1.1c0.5,0.3,1,0.4,1.5,0.4c0.8,0,1.5-0.3,2.1-0.8c0.6-0.5,0.8-1.2,0.8-2.1c0-0.9-0.3-1.6-0.9-2.1 c-0.6-0.6-1.3-0.8-2.1-0.8c-0.8,0-1.5,0.3-2.1,0.8C845.7,611.3,845.4,611.9,845.4,612.8z M846,606.1c0,0.7,0.2,1.2,0.7,1.7 c0.4,0.4,1,0.7,1.7,0.7c0.7,0,1.2-0.2,1.7-0.6c0.4-0.4,0.7-1,0.7-1.6c0-0.7-0.2-1.2-0.7-1.6c-0.5-0.4-1-0.7-1.7-0.7 c-0.7,0-1.2,0.2-1.7,0.7C846.2,605,846,605.5,846,606.1z"/></g><g><path d="M918.5,611.1v-3.8h-2.6c-0.4-2-1.2-3.9-2.5-5.5l2.3-2.3l-2.7-2.7l-2.3,2.3c-1.5-1.1-3.3-1.8-5.2-2.2v-3.6h-3.8 v3.5c-1.9,0.2-3.6,0.9-5.2,1.9l-2.5-2.5l-2.7,2.7l2.3,2.3c-1.3,1.5-2.2,3.3-2.7,5.2h-3v3.8h2.6c0.1,2.2,0.7,4.3,1.9,6.1l-1.6,1.6 l2.7,2.7l1.4-1.4c1.7,1.5,3.8,2.6,6.1,3v1.8h3.8v-1.7c2.3-0.3,4.5-1.1,6.4-2.6l1.4,1.4l2.7-2.7l-1.4-1.4c1.3-1.8,2.1-3.9,2.4-6.1 H918.5z M908.4,615.6c-1.6,1.4-3.6,2.1-5.7,2c-2.1-0.1-4-1.1-5.4-2.7c-1.4-1.6-2.1-3.6-2-5.7c0.1-2.1,1.1-4,2.7-5.4 c1.5-1.3,3.3-2,5.2-2c0.2,0,0.3,0,0.5,0c2.1,0.1,4,1.1,5.4,2.7c1.4,1.6,2.1,3.6,2,5.7C910.9,612.2,910,614.2,908.4,615.6z" fill="#bfbfbf"/></g><g><path d="M35.3 609.9L35.3 594.9 48.3 602.4 61.2 609.9 48.3 617.3 35.3 624.8z" fill="#bfbfbf"/></g><g><path d="M97.3 609.6L97.3 600 103.8 604.8 110.3 609.6 103.8 614.4 97.3 619.2z" fill="#bfbfbf"/></g><g><path d="M110.6 609.6L110.6 600 117.1 604.8 123.6 609.6 117.1 614.4 110.6 619.2z" fill="#bfbfbf"/></g><g><path d="M123.9 599.2H130.4V620H123.9z" fill="#bfbfbf"/></g><g><path d="M216.4 607H287.3V611.8H216.4z" fill="#f6f6f8"/></g><g><path d="M275.6 598.3H281.90000000000003V620.3H275.6z" fill="#bfbfbf"/></g><g><path d="M175.8 602.1L174.1 604.4 168.2 604.4 168.2 614.5 174.6 614.5 175.8 616.2 181.1 623.3 181.1 609.1 181.1 595z" fill="#bfbfbf"/></g><g><path d="M186.1,594.9v2c6.9,0,12.5,5.6,12.5,12.5c0,6.9-5.6,12.5-12.5,12.5v2c8,0,14.4-6.5,14.4-14.4 C200.6,601.4,194.1,594.9,186.1,594.9z" fill="#bfbfbf"/></g><g><path d="M186.7,600.8c-0.1,0-0.3,0-0.4,0v17.3c0.1,0,0.3,0,0.4,0c4.8,0,8.7-3.9,8.7-8.7S191.5,600.8,186.7,600.8z" fill="#bfbfbf"/></g><g><path d="M510.1 283.8L510.1 211.8 569.1 247.8 628 283.8 569.1 319.9 510.1 355.9z" fill="#f2f2f2"/></g><g><path d="M552.3,432.8c-20,0-39.4-3.9-57.7-11.6c-17.6-7.5-33.5-18.1-47.1-31.7s-24.3-29.4-31.7-47.1 c-7.7-18.3-11.6-37.7-11.6-57.7s3.9-39.4,11.6-57.7c7.5-17.6,18.1-33.5,31.7-47.1s29.4-24.3,47.1-31.7 c18.3-7.7,37.7-11.6,57.7-11.6c20,0,39.4,3.9,57.7,11.6c17.6,7.5,33.5,18.1,47.1,31.7c13.6,13.6,24.3,29.4,31.7,47.1 c7.7,18.3,11.6,37.7,11.6,57.7s-3.9,39.4-11.6,57.7c-7.5,17.6-18.1,33.5-31.7,47.1c-13.6,13.6-29.4,24.3-47.1,31.7 C591.7,428.8,572.3,432.8,552.3,432.8z M552.3,146.7c-76.1,0-137.9,61.9-137.9,137.9s61.9,137.9,137.9,137.9 s137.9-61.9,137.9-137.9S628.4,146.7,552.3,146.7z" fill="#f2f2f2"/></g><g fill="#bfbfbf"><path d="M662.3,634.7v-49.4h6.5v20.3h25.7v-20.3h6.5v49.4h-6.5v-23.3h-25.7v23.3H662.3z"/><path d="M712,634.7v-49.4h17c3.8,0,6.8,0.2,8.8,0.7c2.8,0.7,5.2,1.8,7.3,3.5c2.6,2.2,4.6,5,5.9,8.4 c1.3,3.4,1.9,7.3,1.9,11.8c0,3.8-0.4,7.1-1.3,10c-0.9,2.9-2,5.3-3.4,7.2c-1.4,1.9-2.9,3.4-4.5,4.5c-1.6,1.1-3.6,1.9-5.9,2.5 c-2.3,0.6-5,0.8-7.9,0.8H712z M718.6,628.8h10.6c3.3,0,5.8-0.3,7.7-0.9c1.9-0.6,3.3-1.5,4.4-2.6c1.6-1.6,2.8-3.6,3.6-6.3 c0.9-2.6,1.3-5.8,1.3-9.5c0-5.2-0.8-9.1-2.5-11.9c-1.7-2.8-3.8-4.6-6.2-5.6c-1.8-0.7-4.6-1-8.5-1h-10.4V628.8z"/></g></g></svg>